<svg width="44" height="44" viewBox="0 0 44 44" fill="none" xmlns="http://www.w3.org/2000/svg">
<g filter="url(#filter0_b_574_15068)">
<rect x="2" y="2" width="40" height="40" rx="8.00007" fill="#8345E6"/>
<rect x="1" y="1" width="42" height="42" rx="9.00007" stroke="white" stroke-width="2"/>
<path d="M28.1107 17.8847C27.6678 17.6238 27.0922 17.6238 26.6052 17.8847L23.1513 19.8856L20.8044 21.1905L17.3505 23.1912C16.9077 23.4522 16.3321 23.4522 15.845 23.1912L13.0996 21.6253C12.6568 21.3644 12.3469 20.886 12.3469 20.364V17.2758C12.3469 16.7539 12.6125 16.2754 13.0996 16.0144L15.8007 14.4921C16.2435 14.2311 16.8192 14.2311 17.3063 14.4921L20.0074 16.0144C20.4502 16.2754 20.7601 16.7539 20.7601 17.2758V19.2766L23.107 17.9282V15.9274C23.107 15.4055 22.8414 14.927 22.3542 14.6661L17.3505 11.7953C16.9077 11.5344 16.3321 11.5344 15.845 11.7953L10.7528 14.6661C10.2657 14.927 10 15.4055 10 15.9274V21.7124C10 22.2343 10.2657 22.7128 10.7528 22.9738L15.845 25.8445C16.2878 26.1054 16.8635 26.1054 17.3505 25.8445L20.8044 23.8872L23.1513 22.5388L26.6052 20.5815C27.048 20.3205 27.6236 20.3205 28.1107 20.5815L30.8118 22.1038C31.2545 22.3648 31.5645 22.8433 31.5645 23.3652V26.4534C31.5645 26.9754 31.2989 27.4538 30.8118 27.7148L28.1107 29.2806C27.6678 29.5416 27.0922 29.5416 26.6052 29.2806L23.9041 27.7583C23.4612 27.4973 23.1513 27.0188 23.1513 26.4969V24.4961L20.8044 25.8445V27.8452C20.8044 28.3672 21.0701 28.8457 21.5571 29.1066L26.6494 31.9774C27.0922 32.2383 27.6678 32.2383 28.1549 31.9774L33.2472 29.1066C33.69 28.8457 34 28.3672 34 27.8452V22.0603C34 21.5384 33.7343 21.06 33.2472 20.799L28.1107 17.8847Z" fill="white"/>
</g>
<defs>
<filter id="filter0_b_574_15068" x="-5" y="-5" width="54" height="54" filterUnits="userSpaceOnUse" color-interpolation-filters="sRGB">
<feFlood flood-opacity="0" result="BackgroundImageFix"/>
<feGaussianBlur in="BackgroundImageFix" stdDeviation="2.5"/>
<feComposite in2="SourceAlpha" operator="in" result="effect1_backgroundBlur_574_15068"/>
<feBlend mode="normal" in="SourceGraphic" in2="effect1_backgroundBlur_574_15068" result="shape"/>
</filter>
</defs>
</svg>
