<?xml version="1.0" encoding="UTF-8"?>
<svg id="Layer_1" xmlns="http://www.w3.org/2000/svg" version="1.1" viewBox="0 0 2000 2000">
  <!-- Generator: Adobe Illustrator 29.1.0, SVG Export Plug-In . SVG Version: 2.1.0 Build 142)  -->
  <defs>
    <style>
      .st0 {
        fill: #dafb54;
      }
    </style>
  </defs>
  <path class="st0" d="M1590.29,0C1420.35,0,1282.1,114.08,1282.1,254.3v257.26L717.9,242.98h0s-213.17-101.48-213.17-101.48c-21.04-10.02-43.11-17.53-65.68-22.54-22.57-5.01-45.66-7.51-68.74-7.5-31.74,0-63.48,4.75-93.89,14.23-13.82,4.31-27.37,9.6-40.52,15.86-84.15,40.11-134.39,111.92-134.39,192.11v1412.02c0,140.22,138.26,254.3,308.19,254.3s308.19-114.08,308.19-254.3v-257.27l564.2,268.58h0s211.52,100.69,211.52,100.69c42.24,20.11,88.57,30.16,134.91,30.16s92.75-10.07,135.01-30.22c84.5-40.27,134.94-112.38,134.94-192.9V254.3C1898.49,114.08,1760.23,0,1590.29,0ZM1282.1,670.81v306.28l-564.2-268.58v-306.28l564.2,268.58ZM1449.26,750.38l282.07,134.28v306.28l-282.07-134.28v-306.28ZM268.67,333.67c0-6.83.87-13.12,2.39-18.91,7.92-30.08,33.55-46.38,46.96-53.04.52-.26,1.01-.5,1.49-.73.53-.25,1.1-.52,1.7-.79.18-.08.37-.17.55-.25.44-.2.89-.39,1.35-.6.22-.1.45-.19.68-.29.46-.2.94-.4,1.44-.6.24-.1.48-.2.72-.29.56-.23,1.15-.45,1.74-.68.19-.07.37-.15.57-.22.8-.3,1.62-.6,2.48-.9.14-.05.29-.1.43-.15.71-.25,1.44-.5,2.19-.74.28-.09.57-.18.85-.27.64-.2,1.29-.41,1.96-.61.32-.1.65-.19.98-.29.68-.2,1.38-.39,2.09-.59.31-.08.61-.17.92-.25.91-.24,1.83-.47,2.78-.7.12-.03.23-.06.35-.09,1.08-.25,2.18-.5,3.3-.73.26-.05.53-.1.79-.16.86-.17,1.73-.34,2.62-.5.37-.07.74-.13,1.12-.19.81-.14,1.64-.27,2.47-.39.39-.06.78-.12,1.18-.17.9-.12,1.82-.24,2.74-.34.32-.04.64-.08.96-.11,2.51-.27,5.1-.46,7.77-.57.37-.01.74-.02,1.12-.03.96-.03,1.93-.05,2.92-.05.39,0,.79,0,1.18,0,1.72,0,3.45.04,5.22.13,0,0,0,0,.01,0,1.74.09,3.52.23,5.31.4.37.04.74.07,1.12.11,1.79.19,3.59.42,5.42.7.24.04.48.08.71.12,1.67.27,3.37.59,5.07.94.35.07.69.14,1.04.22,1.85.4,3.72.86,5.61,1.37.37.1.74.21,1.12.32,1.74.49,3.48,1.02,5.24,1.61.26.09.52.16.77.25,1.92.65,3.85,1.38,5.8,2.16.44.18.88.36,1.32.54,1.99.82,3.99,1.68,6,2.64l129.54,61.67v306.28l-282.07-134.28v-160.98ZM550.74,943.34v306.28l-282.07-134.28v-306.28l282.07,134.28ZM550.74,1745.7c0,64.17-63.27,116.37-141.03,116.37s-141.03-52.2-141.03-116.37v-471.12l282.07,134.28v336.84ZM717.9,1329.19v-306.28l564.2,268.58v306.28l-564.2-268.58ZM1731.33,1664.76c0,4.14-.32,8.09-.9,11.85-5.66,36.32-36.48,54.93-50.48,61.61-15.45,7.36-56.4,22.1-102.78.02l-127.9-60.89v-306.28l282.07,134.28v159.41ZM1449.26,591.14V254.3c0-64.17,63.27-116.37,141.04-116.37s141.03,52.21,141.03,116.37v471.11l-282.07-134.28Z"/>
</svg>